<?xml version="1.0" encoding="utf-8"?>
<!-- Generator: Adobe Illustrator 21.0.0, SVG Export Plug-In . SVG Version: 6.00 Build 0)  -->
<svg version="1.1" id="Layer_1" xmlns="http://www.w3.org/2000/svg" xmlns:xlink="http://www.w3.org/1999/xlink" x="0px" y="0px"
	 viewBox="0 0 284.7 220.8" style="enable-background:new 0 0 284.7 220.8;" xml:space="preserve">
<style type="text/css">
	.st0{clip-path:url(#SVGID_2_);}
	.st1{clip-path:url(#SVGID_4_);fill:none;stroke:#000000;stroke-miterlimit:10;}
	.st2{clip-path:url(#SVGID_4_);}
	.st3{clip-path:url(#SVGID_4_);fill:none;stroke:#002599;stroke-width:2.5;stroke-linejoin:bevel;stroke-miterlimit:10;}
	.st4{clip-path:url(#SVGID_4_);fill:none;stroke:#0000CC;stroke-width:2.5;stroke-linejoin:bevel;stroke-miterlimit:10;}
	.st5{clip-path:url(#SVGID_4_);fill:none;stroke:#0000FF;stroke-width:2.5;stroke-linejoin:bevel;stroke-miterlimit:10;}
	.st6{clip-path:url(#SVGID_4_);fill:none;stroke:#4040FF;stroke-width:2.5;stroke-linejoin:bevel;stroke-miterlimit:10;}
	.st7{clip-path:url(#SVGID_4_);fill:none;stroke:#8080FF;stroke-width:2.5;stroke-linejoin:bevel;stroke-miterlimit:10;}
	.st8{clip-path:url(#SVGID_4_);fill:none;stroke:#330000;stroke-width:2.5;stroke-linejoin:bevel;stroke-miterlimit:10;}
	.st9{clip-path:url(#SVGID_4_);fill:none;stroke:#660000;stroke-width:2.5;stroke-linejoin:bevel;stroke-miterlimit:10;}
	.st10{clip-path:url(#SVGID_4_);fill:none;stroke:#990000;stroke-width:2.5;stroke-linejoin:bevel;stroke-miterlimit:10;}
	.st11{clip-path:url(#SVGID_4_);fill:none;stroke:#CC0000;stroke-width:2.5;stroke-linejoin:bevel;stroke-miterlimit:10;}
	.st12{clip-path:url(#SVGID_4_);fill:none;stroke:#FF0000;stroke-width:2.5;stroke-linejoin:bevel;stroke-miterlimit:10;}
	.st13{clip-path:url(#SVGID_4_);fill:none;stroke:#FF4040;stroke-width:2.5;stroke-linejoin:bevel;stroke-miterlimit:10;}
	.st14{clip-path:url(#SVGID_4_);fill:none;stroke:#FF8080;stroke-width:2.5;stroke-linejoin:bevel;stroke-miterlimit:10;}
	.st15{fill:#FFFFFF;}
	.st16{opacity:0.19;fill:#FBB03B;}
	.st17{fill:none;stroke:#000000;stroke-width:2;stroke-miterlimit:10;}
</style>
<g>
	<defs>
		<rect id="SVGID_1_" x="1" y="1" width="282.7" height="217.9"/>
	</defs>
	<clipPath id="SVGID_2_">
		<use xlink:href="#SVGID_1_"  style="overflow:visible;"/>
	</clipPath>
	<g class="st0">
		<g>
			<defs>
				<rect id="SVGID_3_" x="-61.4" y="-31.5" width="511" height="288"/>
			</defs>
			<clipPath id="SVGID_4_">
				<use xlink:href="#SVGID_3_"  style="overflow:visible;"/>
			</clipPath>
			<line class="st1" x1="-25.4" y1="-6.5" x2="-25.4" y2="220.5"/>
			<line class="st1" x1="428.6" y1="-6.5" x2="428.6" y2="220.5"/>
			<line class="st1" x1="429.1" y1="-6.5" x2="421.1" y2="-6.5"/>
			<line class="st1" x1="-25.9" y1="-6.5" x2="-17.9" y2="-6.5"/>
			<g class="st2">
				<text transform="matrix(1 0 0 1 -48.5107 -1.6054)" style="font-family:'CMUConcrete-Roman'; font-size:15px;">1.0</text>
			</g>
			<line class="st1" x1="429.1" y1="4.8" x2="424.6" y2="4.8"/>
			<line class="st1" x1="-25.9" y1="4.8" x2="-21.4" y2="4.8"/>
			<line class="st1" x1="429.1" y1="16.2" x2="424.6" y2="16.2"/>
			<line class="st1" x1="-25.9" y1="16.2" x2="-21.4" y2="16.2"/>
			<line class="st1" x1="429.1" y1="27.5" x2="424.6" y2="27.5"/>
			<line class="st1" x1="-25.9" y1="27.5" x2="-21.4" y2="27.5"/>
			<line class="st1" x1="429.1" y1="38.8" x2="421.1" y2="38.8"/>
			<line class="st1" x1="-25.9" y1="38.8" x2="-17.9" y2="38.8"/>
			<g class="st2">
				<text transform="matrix(1 0 0 1 -48.5107 43.7696)" style="font-family:'CMUConcrete-Roman'; font-size:15px;">0.8</text>
			</g>
			<line class="st1" x1="429.1" y1="50.2" x2="424.6" y2="50.2"/>
			<line class="st1" x1="-25.9" y1="50.2" x2="-21.4" y2="50.2"/>
			<line class="st1" x1="429.1" y1="61.6" x2="424.6" y2="61.6"/>
			<line class="st1" x1="-25.9" y1="61.6" x2="-21.4" y2="61.6"/>
			<line class="st1" x1="429.1" y1="73" x2="424.6" y2="73"/>
			<line class="st1" x1="-25.9" y1="73" x2="-21.4" y2="73"/>
			<line class="st1" x1="429.1" y1="84.2" x2="421.1" y2="84.2"/>
			<line class="st1" x1="-25.9" y1="84.2" x2="-17.9" y2="84.2"/>
			<g class="st2">
				<text transform="matrix(1 0 0 1 -48.5107 89.1446)" style="font-family:'CMUConcrete-Roman'; font-size:15px;">0.6</text>
			</g>
			<line class="st1" x1="429.1" y1="95.6" x2="424.6" y2="95.6"/>
			<line class="st1" x1="-25.9" y1="95.6" x2="-21.4" y2="95.6"/>
			<line class="st1" x1="429.1" y1="107" x2="424.6" y2="107"/>
			<line class="st1" x1="-25.9" y1="107" x2="-21.4" y2="107"/>
			<line class="st1" x1="429.1" y1="118.3" x2="424.6" y2="118.3"/>
			<line class="st1" x1="-25.9" y1="118.3" x2="-21.4" y2="118.3"/>
			<line class="st1" x1="429.1" y1="129.7" x2="421.1" y2="129.7"/>
			<line class="st1" x1="-25.9" y1="129.7" x2="-17.9" y2="129.7"/>
			<g class="st2">
				<text transform="matrix(1 0 0 1 -48.5107 134.6446)" style="font-family:'CMUConcrete-Roman'; font-size:15px;">0.4</text>
			</g>
			<line class="st1" x1="429.1" y1="141" x2="424.6" y2="141"/>
			<line class="st1" x1="-25.9" y1="141" x2="-21.4" y2="141"/>
			<line class="st1" x1="429.1" y1="152.3" x2="424.6" y2="152.3"/>
			<line class="st1" x1="-25.9" y1="152.3" x2="-21.4" y2="152.3"/>
			<line class="st1" x1="429.1" y1="163.7" x2="424.6" y2="163.7"/>
			<line class="st1" x1="-25.9" y1="163.7" x2="-21.4" y2="163.7"/>
			<line class="st1" x1="429.1" y1="175.1" x2="421.1" y2="175.1"/>
			<line class="st1" x1="-25.9" y1="175.1" x2="-17.9" y2="175.1"/>
			<g class="st2">
				<text transform="matrix(1 0 0 1 -48.5107 180.0196)" style="font-family:'CMUConcrete-Roman'; font-size:15px;">0.2</text>
			</g>
			<line class="st1" x1="429.1" y1="186.5" x2="424.6" y2="186.5"/>
			<line class="st1" x1="-25.9" y1="186.5" x2="-21.4" y2="186.5"/>
			<line class="st1" x1="429.1" y1="197.7" x2="424.6" y2="197.7"/>
			<line class="st1" x1="-25.9" y1="197.7" x2="-21.4" y2="197.7"/>
			<line class="st1" x1="429.1" y1="209.1" x2="424.6" y2="209.1"/>
			<line class="st1" x1="-25.9" y1="209.1" x2="-21.4" y2="209.1"/>
			<line class="st1" x1="429.1" y1="220.5" x2="421.1" y2="220.5"/>
			<line class="st1" x1="-25.9" y1="220.5" x2="-17.9" y2="220.5"/>
			<g class="st2">
				<text transform="matrix(1 0 0 1 -48.5107 225.3946)" style="font-family:'CMUConcrete-Roman'; font-size:15px;">0.0</text>
			</g>
			<line class="st1" x1="-25.4" y1="220.5" x2="428.6" y2="220.5"/>
			<line class="st1" x1="-25.4" y1="-6.5" x2="428.6" y2="-6.5"/>
			<line class="st1" x1="-25.4" y1="-7" x2="-25.4" y2="-0.8"/>
			<line class="st1" x1="-25.4" y1="221" x2="-25.4" y2="214.7"/>
			<line class="st1" x1="-20.9" y1="-7" x2="-20.9" y2="-2.5"/>
			<line class="st1" x1="-20.9" y1="221" x2="-20.9" y2="216.5"/>
			<line class="st1" x1="-16.3" y1="-7" x2="-16.3" y2="-2.5"/>
			<line class="st1" x1="-16.3" y1="221" x2="-16.3" y2="216.5"/>
			<line class="st1" x1="-11.8" y1="-7" x2="-11.8" y2="-2.5"/>
			<line class="st1" x1="-11.8" y1="221" x2="-11.8" y2="216.5"/>
			<line class="st1" x1="-7.3" y1="-7" x2="-7.3" y2="-2.5"/>
			<line class="st1" x1="-7.3" y1="221" x2="-7.3" y2="216.5"/>
			<line class="st1" x1="-2.7" y1="-7" x2="-2.7" y2="-0.8"/>
			<line class="st1" x1="-2.7" y1="221" x2="-2.7" y2="214.7"/>
			<line class="st1" x1="1.8" y1="-7" x2="1.8" y2="-2.5"/>
			<line class="st1" x1="1.8" y1="221" x2="1.8" y2="216.5"/>
			<line class="st1" x1="6.3" y1="-7" x2="6.3" y2="-2.5"/>
			<line class="st1" x1="6.3" y1="221" x2="6.3" y2="216.5"/>
			<line class="st1" x1="10.9" y1="-7" x2="10.9" y2="-2.5"/>
			<line class="st1" x1="10.9" y1="221" x2="10.9" y2="216.5"/>
			<line class="st1" x1="15.4" y1="-7" x2="15.4" y2="-2.5"/>
			<line class="st1" x1="15.4" y1="221" x2="15.4" y2="216.5"/>
			<line class="st1" x1="19.9" y1="-7" x2="19.9" y2="1"/>
			<line class="st1" x1="19.9" y1="221" x2="19.9" y2="213"/>
			<g class="st2">
				<text transform="matrix(1 0 0 1 7.9893 238.7696)" style="font-family:'CMUConcrete-Roman'; font-size:15px;">-0.8</text>
			</g>
			<line class="st1" x1="24.6" y1="-7" x2="24.6" y2="-2.5"/>
			<line class="st1" x1="24.6" y1="221" x2="24.6" y2="216.5"/>
			<line class="st1" x1="29.1" y1="-7" x2="29.1" y2="-2.5"/>
			<line class="st1" x1="29.1" y1="221" x2="29.1" y2="216.5"/>
			<line class="st1" x1="33.6" y1="-7" x2="33.6" y2="-2.5"/>
			<line class="st1" x1="33.6" y1="221" x2="33.6" y2="216.5"/>
			<line class="st1" x1="38.1" y1="-7" x2="38.1" y2="-2.5"/>
			<line class="st1" x1="38.1" y1="221" x2="38.1" y2="216.5"/>
			<line class="st1" x1="42.7" y1="-7" x2="42.7" y2="-0.8"/>
			<line class="st1" x1="42.7" y1="221" x2="42.7" y2="214.7"/>
			<line class="st1" x1="47.2" y1="-7" x2="47.2" y2="-2.5"/>
			<line class="st1" x1="47.2" y1="221" x2="47.2" y2="216.5"/>
			<line class="st1" x1="51.7" y1="-7" x2="51.7" y2="-2.5"/>
			<line class="st1" x1="51.7" y1="221" x2="51.7" y2="216.5"/>
			<line class="st1" x1="56.3" y1="-7" x2="56.3" y2="-2.5"/>
			<line class="st1" x1="56.3" y1="221" x2="56.3" y2="216.5"/>
			<line class="st1" x1="60.8" y1="-7" x2="60.8" y2="-2.5"/>
			<line class="st1" x1="60.8" y1="221" x2="60.8" y2="216.5"/>
			<line class="st1" x1="65.3" y1="-7" x2="65.3" y2="-0.8"/>
			<line class="st1" x1="65.3" y1="221" x2="65.3" y2="214.7"/>
			<line class="st1" x1="69.9" y1="-7" x2="69.9" y2="-2.5"/>
			<line class="st1" x1="69.9" y1="221" x2="69.9" y2="216.5"/>
			<line class="st1" x1="74.4" y1="-7" x2="74.4" y2="-2.5"/>
			<line class="st1" x1="74.4" y1="221" x2="74.4" y2="216.5"/>
			<line class="st1" x1="78.9" y1="-7" x2="78.9" y2="-2.5"/>
			<line class="st1" x1="78.9" y1="221" x2="78.9" y2="216.5"/>
			<line class="st1" x1="83.6" y1="-7" x2="83.6" y2="-2.5"/>
			<line class="st1" x1="83.6" y1="221" x2="83.6" y2="216.5"/>
			<line class="st1" x1="88.1" y1="-7" x2="88.1" y2="-0.8"/>
			<line class="st1" x1="88.1" y1="221" x2="88.1" y2="214.7"/>
			<line class="st1" x1="92.6" y1="-7" x2="92.6" y2="-2.5"/>
			<line class="st1" x1="92.6" y1="221" x2="92.6" y2="216.5"/>
			<line class="st1" x1="97.2" y1="-7" x2="97.2" y2="-2.5"/>
			<line class="st1" x1="97.2" y1="221" x2="97.2" y2="216.5"/>
			<line class="st1" x1="101.7" y1="-7" x2="101.7" y2="-2.5"/>
			<line class="st1" x1="101.7" y1="221" x2="101.7" y2="216.5"/>
			<line class="st1" x1="106.2" y1="-7" x2="106.2" y2="-2.5"/>
			<line class="st1" x1="106.2" y1="221" x2="106.2" y2="216.5"/>
			<line class="st1" x1="110.8" y1="-7" x2="110.8" y2="1"/>
			<line class="st1" x1="110.8" y1="221" x2="110.8" y2="213"/>
			<g class="st2">
				<text transform="matrix(1 0 0 1 98.8643 238.7696)" style="font-family:'CMUConcrete-Roman'; font-size:15px;">-0.4</text>
			</g>
			<line class="st1" x1="115.3" y1="-7" x2="115.3" y2="-2.5"/>
			<line class="st1" x1="115.3" y1="221" x2="115.3" y2="216.5"/>
			<line class="st1" x1="119.8" y1="-7" x2="119.8" y2="-2.5"/>
			<line class="st1" x1="119.8" y1="221" x2="119.8" y2="216.5"/>
			<line class="st1" x1="124.4" y1="-7" x2="124.4" y2="-2.5"/>
			<line class="st1" x1="124.4" y1="221" x2="124.4" y2="216.5"/>
			<line class="st1" x1="128.9" y1="-7" x2="128.9" y2="-2.5"/>
			<line class="st1" x1="128.9" y1="221" x2="128.9" y2="216.5"/>
			<line class="st1" x1="133.4" y1="-7" x2="133.4" y2="-0.8"/>
			<line class="st1" x1="133.4" y1="221" x2="133.4" y2="214.7"/>
			<line class="st1" x1="138.1" y1="-7" x2="138.1" y2="-2.5"/>
			<line class="st1" x1="138.1" y1="221" x2="138.1" y2="216.5"/>
			<line class="st1" x1="142.6" y1="-7" x2="142.6" y2="-2.5"/>
			<line class="st1" x1="142.6" y1="221" x2="142.6" y2="216.5"/>
			<line class="st1" x1="147.1" y1="-7" x2="147.1" y2="-2.5"/>
			<line class="st1" x1="147.1" y1="221" x2="147.1" y2="216.5"/>
			<line class="st1" x1="151.6" y1="-7" x2="151.6" y2="-2.5"/>
			<line class="st1" x1="151.6" y1="221" x2="151.6" y2="216.5"/>
			<line class="st1" x1="156.2" y1="-7" x2="156.2" y2="-0.8"/>
			<line class="st1" x1="156.2" y1="221" x2="156.2" y2="214.7"/>
			<line class="st1" x1="160.7" y1="-7" x2="160.7" y2="-2.5"/>
			<line class="st1" x1="160.7" y1="221" x2="160.7" y2="216.5"/>
			<line class="st1" x1="165.2" y1="-7" x2="165.2" y2="-2.5"/>
			<line class="st1" x1="165.2" y1="221" x2="165.2" y2="216.5"/>
			<line class="st1" x1="169.8" y1="-7" x2="169.8" y2="-2.5"/>
			<line class="st1" x1="169.8" y1="221" x2="169.8" y2="216.5"/>
			<line class="st1" x1="174.3" y1="-7" x2="174.3" y2="-2.5"/>
			<line class="st1" x1="174.3" y1="221" x2="174.3" y2="216.5"/>
			<line class="st1" x1="178.8" y1="-7" x2="178.8" y2="-0.8"/>
			<line class="st1" x1="178.8" y1="221" x2="178.8" y2="214.7"/>
			<line class="st1" x1="183.4" y1="-7" x2="183.4" y2="-2.5"/>
			<line class="st1" x1="183.4" y1="221" x2="183.4" y2="216.5"/>
			<line class="st1" x1="187.9" y1="-7" x2="187.9" y2="-2.5"/>
			<line class="st1" x1="187.9" y1="221" x2="187.9" y2="216.5"/>
			<line class="st1" x1="192.4" y1="-7" x2="192.4" y2="-2.5"/>
			<line class="st1" x1="192.4" y1="221" x2="192.4" y2="216.5"/>
			<line class="st1" x1="197.1" y1="-7" x2="197.1" y2="-2.5"/>
			<line class="st1" x1="197.1" y1="221" x2="197.1" y2="216.5"/>
			<line class="st1" x1="201.6" y1="-7" x2="201.6" y2="1"/>
			<line class="st1" x1="201.6" y1="221" x2="201.6" y2="213"/>
			<g class="st2">
				<text transform="matrix(1 0 0 1 192.1143 238.7696)" style="font-family:'CMUConcrete-Roman'; font-size:15px;">0.0</text>
			</g>
			<line class="st1" x1="206.1" y1="-7" x2="206.1" y2="-2.5"/>
			<line class="st1" x1="206.1" y1="221" x2="206.1" y2="216.5"/>
			<line class="st1" x1="210.7" y1="-7" x2="210.7" y2="-2.5"/>
			<line class="st1" x1="210.7" y1="221" x2="210.7" y2="216.5"/>
			<line class="st1" x1="215.2" y1="-7" x2="215.2" y2="-2.5"/>
			<line class="st1" x1="215.2" y1="221" x2="215.2" y2="216.5"/>
			<line class="st1" x1="219.7" y1="-7" x2="219.7" y2="-2.5"/>
			<line class="st1" x1="219.7" y1="221" x2="219.7" y2="216.5"/>
			<line class="st1" x1="224.3" y1="-7" x2="224.3" y2="-0.8"/>
			<line class="st1" x1="224.3" y1="221" x2="224.3" y2="214.7"/>
			<line class="st1" x1="228.8" y1="-7" x2="228.8" y2="-2.5"/>
			<line class="st1" x1="228.8" y1="221" x2="228.8" y2="216.5"/>
			<line class="st1" x1="233.3" y1="-7" x2="233.3" y2="-2.5"/>
			<line class="st1" x1="233.3" y1="221" x2="233.3" y2="216.5"/>
			<line class="st1" x1="237.9" y1="-7" x2="237.9" y2="-2.5"/>
			<line class="st1" x1="237.9" y1="221" x2="237.9" y2="216.5"/>
			<line class="st1" x1="242.4" y1="-7" x2="242.4" y2="-2.5"/>
			<line class="st1" x1="242.4" y1="221" x2="242.4" y2="216.5"/>
			<line class="st1" x1="246.9" y1="-7" x2="246.9" y2="-0.8"/>
			<line class="st1" x1="246.9" y1="221" x2="246.9" y2="214.7"/>
			<line class="st1" x1="251.6" y1="-7" x2="251.6" y2="-2.5"/>
			<line class="st1" x1="251.6" y1="221" x2="251.6" y2="216.5"/>
			<line class="st1" x1="256.1" y1="-7" x2="256.1" y2="-2.5"/>
			<line class="st1" x1="256.1" y1="221" x2="256.1" y2="216.5"/>
			<line class="st1" x1="260.6" y1="-7" x2="260.6" y2="-2.5"/>
			<line class="st1" x1="260.6" y1="221" x2="260.6" y2="216.5"/>
			<line class="st1" x1="265.1" y1="-7" x2="265.1" y2="-2.5"/>
			<line class="st1" x1="265.1" y1="221" x2="265.1" y2="216.5"/>
			<line class="st1" x1="269.7" y1="-7" x2="269.7" y2="-0.8"/>
			<line class="st1" x1="269.7" y1="221" x2="269.7" y2="214.7"/>
			<line class="st1" x1="274.2" y1="-7" x2="274.2" y2="-2.5"/>
			<line class="st1" x1="274.2" y1="221" x2="274.2" y2="216.5"/>
			<line class="st1" x1="278.7" y1="-7" x2="278.7" y2="-2.5"/>
			<line class="st1" x1="278.7" y1="221" x2="278.7" y2="216.5"/>
			<line class="st1" x1="283.3" y1="-7" x2="283.3" y2="-2.5"/>
			<line class="st1" x1="283.3" y1="221" x2="283.3" y2="216.5"/>
			<line class="st1" x1="287.8" y1="-7" x2="287.8" y2="-2.5"/>
			<line class="st1" x1="287.8" y1="221" x2="287.8" y2="216.5"/>
			<line class="st1" x1="292.3" y1="-7" x2="292.3" y2="1"/>
			<line class="st1" x1="292.3" y1="221" x2="292.3" y2="213"/>
			<g class="st2">
				<text transform="matrix(1 0 0 1 282.8643 238.7696)" style="font-family:'CMUConcrete-Roman'; font-size:15px;">0.4</text>
			</g>
			<line class="st1" x1="296.9" y1="-7" x2="296.9" y2="-2.5"/>
			<line class="st1" x1="296.9" y1="221" x2="296.9" y2="216.5"/>
			<line class="st1" x1="301.4" y1="-7" x2="301.4" y2="-2.5"/>
			<line class="st1" x1="301.4" y1="221" x2="301.4" y2="216.5"/>
			<line class="st1" x1="305.9" y1="-7" x2="305.9" y2="-2.5"/>
			<line class="st1" x1="305.9" y1="221" x2="305.9" y2="216.5"/>
			<line class="st1" x1="310.6" y1="-7" x2="310.6" y2="-2.5"/>
			<line class="st1" x1="310.6" y1="221" x2="310.6" y2="216.5"/>
			<line class="st1" x1="315.1" y1="-7" x2="315.1" y2="-0.8"/>
			<line class="st1" x1="315.1" y1="221" x2="315.1" y2="214.7"/>
			<line class="st1" x1="319.6" y1="-7" x2="319.6" y2="-2.5"/>
			<line class="st1" x1="319.6" y1="221" x2="319.6" y2="216.5"/>
			<line class="st1" x1="324.2" y1="-7" x2="324.2" y2="-2.5"/>
			<line class="st1" x1="324.2" y1="221" x2="324.2" y2="216.5"/>
			<line class="st1" x1="328.7" y1="-7" x2="328.7" y2="-2.5"/>
			<line class="st1" x1="328.7" y1="221" x2="328.7" y2="216.5"/>
			<line class="st1" x1="333.2" y1="-7" x2="333.2" y2="-2.5"/>
			<line class="st1" x1="333.2" y1="221" x2="333.2" y2="216.5"/>
			<line class="st1" x1="337.8" y1="-7" x2="337.8" y2="-0.8"/>
			<line class="st1" x1="337.8" y1="221" x2="337.8" y2="214.7"/>
			<line class="st1" x1="342.3" y1="-7" x2="342.3" y2="-2.5"/>
			<line class="st1" x1="342.3" y1="221" x2="342.3" y2="216.5"/>
			<line class="st1" x1="346.8" y1="-7" x2="346.8" y2="-2.5"/>
			<line class="st1" x1="346.8" y1="221" x2="346.8" y2="216.5"/>
			<line class="st1" x1="351.4" y1="-7" x2="351.4" y2="-2.5"/>
			<line class="st1" x1="351.4" y1="221" x2="351.4" y2="216.5"/>
			<line class="st1" x1="355.9" y1="-7" x2="355.9" y2="-2.5"/>
			<line class="st1" x1="355.9" y1="221" x2="355.9" y2="216.5"/>
			<line class="st1" x1="360.4" y1="-7" x2="360.4" y2="-0.8"/>
			<line class="st1" x1="360.4" y1="221" x2="360.4" y2="214.7"/>
			<line class="st1" x1="365.1" y1="-7" x2="365.1" y2="-2.5"/>
			<line class="st1" x1="365.1" y1="221" x2="365.1" y2="216.5"/>
			<line class="st1" x1="369.6" y1="-7" x2="369.6" y2="-2.5"/>
			<line class="st1" x1="369.6" y1="221" x2="369.6" y2="216.5"/>
			<line class="st1" x1="374.1" y1="-7" x2="374.1" y2="-2.5"/>
			<line class="st1" x1="374.1" y1="221" x2="374.1" y2="216.5"/>
			<line class="st1" x1="378.6" y1="-7" x2="378.6" y2="-2.5"/>
			<line class="st1" x1="378.6" y1="221" x2="378.6" y2="216.5"/>
			<line class="st1" x1="383.2" y1="-7" x2="383.2" y2="1"/>
			<line class="st1" x1="383.2" y1="221" x2="383.2" y2="213"/>
			<g class="st2">
				<text transform="matrix(1 0 0 1 373.7393 238.7696)" style="font-family:'CMUConcrete-Roman'; font-size:15px;">0.8</text>
			</g>
			<line class="st1" x1="387.7" y1="-7" x2="387.7" y2="-2.5"/>
			<line class="st1" x1="387.7" y1="221" x2="387.7" y2="216.5"/>
			<line class="st1" x1="392.2" y1="-7" x2="392.2" y2="-2.5"/>
			<line class="st1" x1="392.2" y1="221" x2="392.2" y2="216.5"/>
			<line class="st1" x1="396.8" y1="-7" x2="396.8" y2="-2.5"/>
			<line class="st1" x1="396.8" y1="221" x2="396.8" y2="216.5"/>
			<line class="st1" x1="401.3" y1="-7" x2="401.3" y2="-2.5"/>
			<line class="st1" x1="401.3" y1="221" x2="401.3" y2="216.5"/>
			<line class="st1" x1="405.8" y1="-7" x2="405.8" y2="-0.8"/>
			<line class="st1" x1="405.8" y1="221" x2="405.8" y2="214.7"/>
			<line class="st1" x1="410.4" y1="-7" x2="410.4" y2="-2.5"/>
			<line class="st1" x1="410.4" y1="221" x2="410.4" y2="216.5"/>
			<line class="st1" x1="414.9" y1="-7" x2="414.9" y2="-2.5"/>
			<line class="st1" x1="414.9" y1="221" x2="414.9" y2="216.5"/>
			<line class="st1" x1="419.4" y1="-7" x2="419.4" y2="-2.5"/>
			<line class="st1" x1="419.4" y1="221" x2="419.4" y2="216.5"/>
			<line class="st1" x1="424.1" y1="-7" x2="424.1" y2="-2.5"/>
			<line class="st1" x1="424.1" y1="221" x2="424.1" y2="216.5"/>
			<line class="st1" x1="428.6" y1="-7" x2="428.6" y2="-0.8"/>
			<line class="st1" x1="428.6" y1="221" x2="428.6" y2="214.7"/>
			<polyline class="st3" points="201.6,220.5 201.5,216.9 201.2,213.3 200.7,209.8 200.1,206.3 199.2,202.6 198.4,199.3 
				197.4,195.8 196.1,192.4 194.7,189 193.4,185.8 191.7,182.5 189.9,179.4 188,176.4 185.9,173.5 183.5,170.8 181,168.1 
				178.2,165.8 175.4,163.5 172.4,161.6 169.1,160 165.9,158.6 162.4,157.6 158.9,156.9 155.2,156.4 151.7,155.9 148.1,155.6 
				144.5,155.4 140.9,155.3 137.4,155.1 133.7,155 130.1,154.9 126.5,154.8 122.9,154.6 119.4,154.5 115.7,154.3 112.1,154.1 
				108.5,153.9 105,153.6 101.4,153.3 97.7,153 94.1,152.6 90.6,152.3 87,151.9 83.5,151.4 79.9,150.9 76.2,150.4 72.7,149.8 
				69.2,149.3 65.6,148.6 62.1,148 58.5,147.4 55,146.6 51.5,146 48,145.3 44.4,144.5 40.9,143.8 37.4,142.9 33.9,142.1 30.4,141.4 
				26.9,140.5 23.4,139.8 19.9,138.9 16.4,138 			"/>
			<polyline class="st4" points="201.6,220.5 201.6,216.9 201.5,213.3 201.5,209.8 201.4,206.1 201.4,202.5 201.2,198.9 
				201.2,195.3 201.1,191.6 201,188.1 200.9,184.5 200.5,180.9 200.2,177.3 199.7,173.8 199.1,170.1 198.5,166.6 197.6,163.1 
				196.7,159.6 195.6,156.3 194.4,152.9 193,149.5 191.4,146.3 189.7,143.1 187.9,140 185.9,137 183.7,134 181.5,131.3 179.1,128.5 
				176.6,126 174,123.5 171.2,121.3 168.4,119 165.4,117 162.2,115.3 159,113.6 155.7,112.3 152.4,111.1 148.9,110.1 145.2,109.6 
				141.7,109.3 138.1,109.3 134.5,109.4 130.9,109.5 127.2,109.6 123.6,109.8 120.1,109.8 116.5,109.9 112.9,109.9 109.2,110 
				105.6,110 102.1,110 98.5,110 94.9,110 91.2,110 87.6,110 84,109.9 80.5,109.9 76.9,109.8 73.2,109.8 69.6,109.6 66,109.5 
				62.4,109.4 58.9,109.4 55.2,109.3 			"/>
			<polyline class="st5" points="201.6,220.5 201.6,216.9 201.7,213.3 201.9,209.8 202.2,206.1 202.6,202.5 203,199 203.6,195.4 
				204.2,191.9 204.9,188.3 205.5,184.8 206.2,181.3 207,177.8 207.6,174.1 208.2,170.6 208.9,167 209.4,163.5 209.9,159.9 
				210.2,156.4 210.5,152.8 210.6,149.1 210.7,145.5 210.7,138.4 210.5,134.8 210.2,131.1 209.7,127.6 209.2,124 208.6,120.5 
				208,116.9 207.1,113.4 206.2,109.9 205.2,106.5 204.1,103 202.9,99.6 201.6,96.3 200.1,93 198.6,89.8 197,86.5 195.2,83.4 
				193.4,80.3 191.5,77.3 189.4,74.3 187.2,71.4 184.9,68.6 182.5,66 180,63.4 177.4,61 174.6,58.6 171.7,56.5 168.7,54.5 
				165.6,52.6 162.4,51 159.1,49.5 155.7,48.4 152.2,47.4 148.7,46.8 145.1,46.4 141.5,46.3 137.9,46.5 134.4,46.8 130.7,47.1 
				127.1,47.4 123.6,47.8 			"/>
			<polyline class="st6" points="201.6,220.5 201.6,216.9 201.7,213.3 202,209.8 202.2,206.1 202.7,202.5 203.2,199 204,195.5 
				204.9,192 205.9,188.5 206.9,185 208.1,181.6 209.4,178.3 210.6,174.9 212,171.5 213.4,168.3 214.7,164.9 216.1,161.5 
				217.4,158.3 218.7,154.9 220,151.5 221.2,148.1 222.4,144.6 223.5,141.3 224.5,137.8 225.5,134.4 226.5,130.9 227.2,127.4 
				228,123.9 228.7,120.3 229.4,116.8 229.9,113.1 230.4,109.6 230.7,106 231.1,102.5 231.4,98.9 231.5,95.3 231.6,91.6 231.6,88 
				231.5,84.5 231.4,80.9 231.2,77.3 230.9,73.6 230.5,70.1 230,66.5 229.5,62.9 228.9,59.4 228.1,55.9 227.4,52.4 226.5,48.9 
				225.5,45.4 224.4,42 223.2,38.5 222,35.1 220.7,31.8 219.4,28.5 218,25.1 216.5,21.9 215,18.6 213.4,15.4 211.7,12.1 210.1,8.9 
				208.5,5.8 206.7,2.5 			"/>
			<polyline class="st7" points="201.6,220.5 201.6,209.8 201.7,206.1 201.9,202.5 202.2,198.9 202.6,195.4 203.1,191.8 
				203.9,188.3 204.7,184.8 205.7,181.3 207,177.9 208.2,174.5 209.6,171.3 211.2,168 212.9,164.8 214.5,161.6 216.4,158.4 
				218.1,155.3 219.9,152.1 221.7,149.1 223.5,146 225.4,142.9 227.1,139.8 228.9,136.5 230.6,133.4 232.2,130.3 233.9,127 
				235.5,123.8 237,120.5 238.5,117.3 240,113.9 241.4,110.6 242.7,107.3 244,103.9 245.2,100.5 246.5,97.1 247.6,93.8 248.7,90.3 
				249.7,86.9 250.7,83.4 251.7,79.9 252.6,76.4 253.4,72.9 254.1,69.4 254.9,65.9 255.6,62.3 256.2,58.8 256.7,55.3 257.2,51.6 
				257.7,48 258.2,44.5 258.6,40.9 259,37.3 259.2,33.8 259.6,30.1 259.9,26.5 260.1,23 260.2,19.4 260.5,15.8 260.6,12.1 
				260.9,8.5 261,5 			"/>
			<polyline class="st8" points="201.6,220.5 201.5,216.9 201.4,213.3 201.1,209.8 200.7,206.1 200.4,202.5 200,199 199.7,195.4 
				199.5,191.8 199.4,188.1 199.2,184.6 199.4,181 199.6,177.4 200,173.8 200.6,170.3 201.4,166.8 202.2,163.3 203.4,159.8 
				204.6,156.4 206,153.1 207.6,149.9 209.2,146.6 211,143.5 212.9,140.4 214.7,137.4 216.6,134.3 218.6,131.3 220.6,128.3 
				222.6,125.3 224.6,122.3 226.6,119.3 228.5,116.3 230.5,113.3 232.5,110.1 234.4,107.1 236.2,104 238.1,101 240,97.9 241.7,94.8 
				243.5,91.6 245.2,88.5 247,85.4 248.7,82.1 250.4,79 252.1,75.8 253.7,72.5 255.4,69.4 256.9,66.1 258.5,62.9 260,59.6 
				261.5,56.3 263,53 264.4,49.8 265.9,46.4 267.2,43.1 268.6,39.8 270,36.5 271.4,33.1 272.7,29.8 274,26.4 275.4,23 276.6,19.8 
				278,16.4 279.2,13 			"/>
			<polyline class="st9" points="201.6,220.5 201.5,216.9 201.1,213.4 200.4,209.8 199.6,206.3 198.6,202.8 197.6,199.4 
				196.5,195.9 195.4,192.5 194.1,189.1 193,185.6 192,182.3 191,178.8 190.1,175.3 189.2,171.8 188.6,168.3 188,164.6 187.6,161.1 
				187.4,157.5 187.2,153.9 187.2,150.3 187.4,146.8 187.7,143.1 188.2,139.5 188.9,136 189.7,132.5 190.6,129 191.7,125.6 
				193.1,122.3 194.5,118.9 196,115.6 197.6,112.5 199.4,109.3 201.1,106.1 203,103.1 204.9,100 206.9,97 208.7,93.9 210.7,90.9 
				212.6,87.9 214.6,84.9 216.6,81.9 218.6,78.9 220.6,75.9 222.6,72.9 224.6,69.9 226.6,66.9 228.6,63.9 230.6,60.9 232.6,57.9 
				234.6,54.9 236.6,51.9 238.6,48.9 240.6,45.9 242.5,42.9 244.5,39.9 246.5,36.8 248.4,33.8 250.4,30.8 252.2,27.6 254.2,24.6 
				256.1,21.6 258.1,18.5 260,15.5 			"/>
			<polyline class="st10" points="201.6,220.5 201.4,216.9 200.9,213.4 199.9,209.9 198.7,206.5 197.4,203.1 195.7,200 194,196.8 
				192.1,193.8 190.1,190.6 188.2,187.6 186.2,184.6 184.2,181.6 182.2,178.6 180.4,175.5 178.5,172.5 176.7,169.4 175,166.1 
				173.5,162.9 172,159.6 170.5,156.4 169.2,153 168,149.6 167,146.1 166,142.6 165.2,139.1 164.5,135.6 164,132 163.5,128.5 
				163.2,124.9 163,121.3 163,114.1 163.2,110.5 163.6,106.9 164,103.4 164.6,99.8 165.4,96.3 166.2,92.8 167.1,89.3 168.2,85.9 
				169.5,82.5 170.7,79.1 172.2,75.8 173.7,72.5 175.2,69.3 176.9,66 178.6,62.9 180.4,59.8 182.1,56.6 184,53.5 185.9,50.4 
				187.7,47.4 189.6,44.3 191.6,41.3 193.5,38.3 195.5,35.1 197.5,32.1 199.4,29.1 201.4,26.1 203.4,23.1 205.4,20.1 207.4,17.1 
				209.4,14.1 			"/>
			<polyline class="st11" points="201.6,220.5 201.4,216.9 200.7,213.4 199.6,210 198.2,206.6 196.5,203.5 194.6,200.5 192.4,197.6 
				190.1,194.8 187.6,192.1 185.1,189.6 182.5,187.1 179.9,184.6 177.2,182.3 174.6,179.8 171.9,177.4 169.2,174.9 166.7,172.4 
				164.1,169.8 161.6,167.1 159.2,164.5 156.9,161.8 154.6,159 152.4,156.3 150.2,153.3 148.1,150.4 146.2,147.4 144.4,144.3 
				142.5,141.1 140.9,138 139.2,134.8 137.7,131.5 136.2,128.1 135,124.8 133.7,121.4 132.6,118 131.6,114.5 130.7,111 129.9,107.5 
				129.1,104 128.5,100.5 128,96.9 127.5,93.4 127.2,89.8 127,86.1 126.9,82.5 126.7,78.9 126.7,75.4 126.9,71.8 127.1,68.1 
				127.4,64.5 127.7,61 128.1,57.4 128.6,53.8 129.1,50.3 129.7,46.6 130.4,43.1 131,39.6 131.7,36.1 132.5,32.5 133.4,29 
				134.1,25.5 135,22 135.7,18.5 			"/>
			<polyline class="st11" points="201.6,220.5 201.4,216.9 200.6,213.4 199.5,210 198,206.8 196.2,203.6 194.1,200.6 191.7,198 
				189.2,195.4 186.5,193 183.6,190.8 180.7,188.8 177.7,186.8 174.6,184.9 171.6,183 168.5,181.3 165.4,179.4 162.2,177.6 
				159.1,175.8 156,174 152.9,172.1 149.9,170.1 146.9,168.3 143.9,166.1 141,164.1 138,161.9 135.2,159.8 132.5,157.4 129.7,155 
				127,152.6 124.4,150.1 121.9,147.6 119.4,145 117,142.4 114.6,139.6 112.4,136.9 110.1,134 108,131.1 105.9,128.1 103.9,125.1 
				101.9,122.1 100,119 98.2,116 96.5,112.8 94.7,109.6 93.2,106.4 91.6,103.1 90.1,99.9 88.7,96.5 87.4,93.3 86,89.9 84.7,86.5 
				83.6,83.1 82.4,79.6 81.2,76.3 80.2,72.8 79.1,69.4 78.1,65.9 77.1,62.4 76.2,59 75.2,55.5 74.4,52 73.4,48.5 72.5,45 			"/>
			<polyline class="st12" points="201.6,220.5 201.4,216.9 200.7,213.4 199.6,210 198.2,206.6 196.4,203.5 194.4,200.6 192,197.9 
				189.5,195.3 186.7,192.9 183.9,190.8 180.9,188.9 177.6,187.1 174.5,185.5 171.1,184 167.9,182.6 164.5,181.4 161,180.3 
				157.6,179 154.2,177.9 150.9,176.6 147.4,175.5 144,174.3 140.6,173.1 137.2,171.8 133.9,170.5 130.6,169.1 127.2,167.6 
				124,166.1 120.7,164.6 117.5,163 114.4,161.4 111.2,159.6 108.1,157.8 105,155.9 102,154 99,152 96,150 93,147.9 90.1,145.8 
				87.4,143.5 84.5,141.3 81.7,138.9 79,136.5 76.4,134.1 73.7,131.6 71.1,129.1 68.6,126.6 66.1,124 63.6,121.4 61.1,118.8 
				58.7,116.1 56.4,113.4 54,110.6 51.7,107.9 49.4,105.1 47.1,102.3 44.9,99.5 42.6,96.6 40.5,93.9 38.2,91 36.1,88.1 33.9,85.3 
				31.7,82.4 			"/>
			<polyline class="st13" points="201.6,220.5 201.4,216.9 200.9,213.4 200,209.9 198.7,206.5 197.2,203.3 195.4,200.1 193.4,197.1 
				191.1,194.4 188.6,191.8 186,189.3 183.1,187.1 180.1,185.1 177,183.4 173.7,181.8 170.4,180.4 167,179.3 163.5,178.3 160,177.3 
				156.5,176.5 153,175.8 149.5,175.1 145.9,174.5 142.4,173.9 138.9,173.3 135.2,172.6 131.7,171.9 128.2,171.3 124.6,170.5 
				121.1,169.8 117.6,169 114.1,168.1 110.6,167.1 107.1,166.3 103.7,165.3 100.2,164.1 96.9,163 93.5,161.9 90,160.6 86.6,159.4 
				83.4,158.1 80,156.8 76.6,155.3 73.4,153.9 70.1,152.4 66.9,150.8 63.6,149.1 60.4,147.5 57.2,145.9 54.1,144.1 50.9,142.4 
				47.7,140.6 44.7,138.8 41.6,136.9 38.5,135 35.5,133.1 32.4,131.3 29.4,129.3 26.4,127.4 23.2,125.4 20.2,123.4 17.2,121.4 
				14.2,119.5 11.2,117.5 			"/>
			<polyline class="st14" points="201.6,220.5 201.5,216.9 201.1,213.4 200.5,209.8 199.6,206.3 198.7,202.8 197.5,199.4 196.1,196 
				194.6,192.8 193,189.6 191.1,186.5 189.1,183.5 186.9,180.6 184.5,178 182,175.5 179.1,173.1 176.2,171.1 173.1,169.3 
				169.9,167.6 166.5,166.4 163.1,165.3 159.6,164.5 156.1,163.9 152.5,163.4 148.9,162.9 145.4,162.6 141.7,162.4 138.1,162.1 
				134.5,161.9 131,161.6 127.4,161.5 123.7,161.3 120.1,161 116.6,160.8 113,160.4 109.4,160 105.7,159.6 102.2,159.3 98.6,158.9 
				95.1,158.4 91.5,157.9 88,157.3 84.4,156.6 80.9,156 77.4,155.4 73.7,154.6 70.2,153.9 66.7,153.1 63.2,152.4 59.7,151.5 
				56.2,150.6 52.7,149.8 49.2,148.8 45.7,147.9 42.2,146.9 38.9,145.9 35.4,144.9 31.9,143.9 28.5,142.9 25,141.8 21.6,140.8 
				18.1,139.6 14.7,138.6 11.2,137.5 			"/>
		</g>
	</g>
</g>
<rect x="1" y="210.1" class="st15" width="196.8" height="9.8"/>
<rect x="202.6" y="210" class="st15" width="81.1" height="9.8"/>
<rect x="1" y="1" class="st16" width="282.7" height="218.8"/>
<rect x="1" y="1" class="st17" width="282.7" height="218.8"/>
</svg>
